<svg xmlns="http://www.w3.org/2000/svg" style="background-color:white" data-name="Layer 1" viewBox="0 0 100 100" x="0px" y="0px"><title>06</title><g data-name="Group"><path data-name="Compound Path" d="M94.4,18.5C92.5,9,85.6,2.9,76.7,2.9A23.5,23.5,0,0,0,64.6,6.7,23.4,23.4,0,0,0,52.3,2.8C45.1,2.8,39,7.1,36.1,13.9c-11.6,5-19.3,15.9-19.7,27.9L5.1,70.6l11.6,1.1L18,88l13.4-.9V97.2h8V78.5l-14,.9L24.2,64.4l-7.8-.7,8-20.3v-.8a23.1,23.1,0,0,1,9.8-18.4c.3,11.9,8.7,25.7,28.2,33.5a5.8,5.8,0,0,0,4.4,0,63.5,63.5,0,0,0,6.4-3l-.5,3.9c-.4,3.2-.7,6.2-.9,8.8l-.2,2.2a48.9,48.9,0,0,0-.2,8.4V97.2h8V77.5a41.3,41.3,0,0,1,.2-7.2c.1-.8.1-1.6.2-2.4.2-2.4.5-5.3.9-8.4s.8-7.1,1.1-10.7C92.7,39.6,96.3,28,94.4,18.6ZM64.6,49.9C46.8,42.5,40.6,29.7,42.5,20.1c1.1-5.7,4.9-9.3,9.9-9.3,3,0,6.4,1.3,9.8,3.9l2.4,1.8,2.4-1.8c3.4-2.5,6.8-3.8,9.8-3.8,5,0,8.7,3.5,9.9,9.2C88.4,29.6,82.3,42.4,64.6,49.9Z"/></g></svg>