<svg xmlns="http://www.w3.org/2000/svg" viewBox="0 0 132.292 132.292" style="background-color:#fff"><path d="M110.985 10.301c-.411-.005-.828.004-1.251.025-3.384.168-7.164 1.138-10.98 2.615-7.633 2.952-15.404 7.925-20.228 12.821-11.893 12.073-14.18 19.503-13.87 26.005.006.134.02.264.028.397-7.994 5.337-13.808 12.571-17.568 21.066a.775.775 0 0 0-.02.054c-1.412 3.966-1.398 6.736-.255 8.399a3.13 3.13 0 0 0 2.427 1.363c.955.048 1.945-.29 2.899-.918a4.813 4.813 0 0 0 1.975-2.624c.29-.967.263-1.963-.289-2.72-.534-.735-1.26-1.145-1.966-1.119-.707.027-1.25.4-1.673.79-.845.78-1.344 1.806-1.344 1.806a.775.775 0 1 0 1.381.703s.462-.864 1.012-1.372c.276-.254.538-.372.683-.378.146-.006.314.012.655.48.138.19.245.74.057 1.367a3.28 3.28 0 0 1-1.343 1.775c-.75.495-1.443.69-1.97.664-.526-.027-.905-.224-1.23-.695-.646-.94-.882-3.258.432-6.972 3.543-7.992 8.92-14.792 16.298-19.906.671 5.572 2.58 10.57.766 18.082-2.796 11.576-6.446 18.21-9.342 21.931-1.448 1.86-2.71 2.994-3.588 3.656a9.46 9.46 0 0 1-1.01.675 4.729 4.729 0 0 1-.245.132l-.06.028c-.007.003-.009.003-.025.012a4.35 4.35 0 0 0-.07.037l-.37.672.928.749a.775.775 0 0 0 .243-.092l.037-.017a5.91 5.91 0 0 0 .329-.174c.282-.16.683-.41 1.178-.783.988-.746 2.347-1.979 3.876-3.943 3.057-3.927 6.786-10.776 9.622-22.52 2.002-8.29-.257-13.778-.815-19.414a49.59 49.59 0 0 1 2.719-1.623c1.615-.895 3.47-1.748 5.443-2.527l-.014.043c-.29.966-.426 1.86-.303 2.685.122.824.575 1.598 1.33 2.026 1.445.818 3.198.436 4.99-.243 1.793-.679 3.706-1.724 5.532-2.636 1.826-.912 3.575-1.676 4.86-1.843.641-.084 1.144-.025 1.52.16.3.146.528.489.749.892-.148.34-.382.793-.86 1.464-.572.8-1.341 1.777-2.227 2.895-1.773 2.235-4.012 5.035-6.135 8.213-4.245 6.356-8.07 14.267-6.566 22.326.125.669.71 1.173 1.298 1.346.589.173 1.229.165 1.955.1 1.453-.13 3.253-.54 5.145-.908 1.893-.368 3.868-.689 5.55-.664 1.68.026 2.998.393 3.784 1.238 1.86 2 2.497 4.37 2.287 7.21-.21 2.839-1.315 6.115-2.97 9.662-2.091 4.48-4.267 8.583-5.649 11.746-.69 1.581-1.188 2.917-1.37 4.033-.09.559-.106 1.07.035 1.561.142.49.509.954 1 1.172a.775.775 0 0 0 .132.046c4.721 1.147 8.054.713 10.037-.626.991-.67 1.631-1.597 1.815-2.613.184-1.017-.095-2.083-.749-3.002-.601-.845-1.438-1.349-2.284-1.474-.846-.126-1.748.15-2.275.866-.744 1.01-.624 2.128-.218 2.761s.99.929.99.929a.775.775 0 1 0 .737-1.36s-.271-.168-.423-.404c-.152-.236-.292-.395.16-1.009.145-.198.409-.31.803-.251.394.058.873.311 1.25.84.453.638.589 1.258.486 1.827-.103.569-.452 1.127-1.161 1.606-1.406.95-4.305 1.458-8.7.415-.052-.026-.078-.03-.113-.152-.043-.149-.06-.458.008-.883.138-.85.591-2.13 1.26-3.662 1.34-3.065 3.52-7.188 5.633-11.712 1.697-3.637 2.877-7.056 3.11-10.203.232-3.146-.53-6.05-2.696-8.378-1.207-1.297-3.006-1.704-4.897-1.732-1.891-.029-3.944.318-5.866.692-1.922.373-3.72.775-4.988.888-.634.057-1.134.028-1.38-.045-.248-.073-.195-.037-.215-.143-1.382-7.407 2.18-14.966 6.331-21.183 2.077-3.108 4.288-5.87 6.064-8.11.888-1.12 1.666-2.11 2.272-2.958.606-.85 1.047-1.527 1.25-2.201a.775.775 0 0 0-.023-.518c-.366-.9-.96-1.568-1.696-1.93-.736-.36-1.563-.415-2.4-.306-1.675.219-3.492 1.067-5.352 1.996-1.86.928-3.751 1.953-5.389 2.573-1.637.62-2.936.766-3.678.345-.34-.192-.49-.427-.56-.906-.072-.478.004-1.181.253-2.015.113-.376.263-.781.439-1.203 3.313-1.18 6.85-2.13 10.121-2.687 2.96-.505 5.705-.69 7.836-.466 2.131.223 3.56.869 4.127 1.752a.775.775 0 0 0 .052.068c.738.914.8 2.05.28 3.611-.518 1.562-1.65 3.434-3.133 5.425-2.965 3.984-7.297 8.457-10.763 12.498a.775.775 0 1 0 1.176 1.007c3.416-3.985 7.767-8.462 10.83-12.578 1.532-2.058 2.748-4.022 3.36-5.863.605-1.824.57-3.638-.53-5.031-.986-1.501-2.902-2.186-5.236-2.43-2.353-.247-5.208-.041-8.262.48-2.89.493-5.953 1.273-8.905 2.246.497-.918 1.08-1.88 1.73-2.85 2.94-4.382 7.21-8.945 9.745-10.493 2.678-1.636 5.086-2.349 6.684-2.359.799-.004 1.376.168 1.7.395.324.227.46.463.46.929.004.94-.954 2.671-2.21 3.78-.627.553-1.312.962-1.888 1.123-.577.16-.979.112-1.344-.17-.429-.33-.43-.471-.403-.68.027-.209.22-.559.532-.895.625-.671 1.584-1.223 1.584-1.223a.775.775 0 1 0-.755-1.352s-1.104.596-1.964 1.521c-.43.462-.838 1.024-.932 1.75-.095.725.26 1.542.992 2.106.796.613 1.81.682 2.707.432.898-.25 1.742-.782 2.498-1.45 1.513-1.335 2.739-3.172 2.733-4.947a2.678 2.678 0 0 0-1.12-2.193c-.692-.485-1.585-.681-2.599-.675-2.03.013-4.628.844-7.481 2.587-2.997 1.83-7.183 6.414-10.225 10.951-1.022 1.524-1.902 3.033-2.549 4.447-2.516.927-4.897 1.987-6.948 3.123-.708.393-1.4.8-2.078 1.219-.16-5.976 2.01-12.75 13.438-24.35 4.606-4.675 12.271-9.596 19.685-12.465 3.707-1.434 7.354-2.356 10.497-2.512 2.991-.15 5.437.449 7.187 1.798.027 1.649-.135 2.841-.363 3.247-.128.228-.223.284-.306.317-.083.033-.197.047-.375.006-.356-.08-.888-.407-1.286-.731s-.66-.609-.66-.609a.775.775 0 1 0-1.144 1.043s.336.371.826.77c.49.398 1.133.858 1.924 1.037.396.09.85.098 1.29-.077.438-.175.818-.531 1.08-.998.525-.933.713-2.297.603-4.477a.775.775 0 0 0-.272-.549c-1.899-1.623-4.455-2.314-7.33-2.348zM100.403 22.56c-1.327-.06-2.62.571-3.095 1.818-.529 1.386-.56 2.501-.141 3.34.419.838 1.275 1.246 2.056 1.26.78.013 1.554-.291 2.055-.935.5-.643.572-1.662.04-2.555a.775.775 0 1 0-1.33.792c.292.488.206.638.069.814-.138.177-.483.34-.806.334-.322-.006-.55-.105-.7-.403-.149-.298-.23-.95.206-2.095.222-.584.716-.862 1.574-.823.86.038 1.998.5 3.025 1.495 1.13 1.094 1.97 2.043 2.156 3.018.186.976-.153 2.217-1.91 4.177-1.787 1.993-4.226 4.119-6.59 5.515-2.362 1.395-4.589 1.964-5.934 1.351-.784-.357-1.144-.702-1.326-.983-.183-.28-.22-.528-.229-.84-.007-.313.072-.653-.051-1.147a1.393 1.393 0 0 0-.483-.746c-.26-.196-.56-.276-.87-.308-.937-.099-1.745.133-2.332.565-.587.432-.943 1.02-1.17 1.576-.451 1.112-.425 2.21-.425 2.21a.775.775 0 1 0 1.55-.018s.004-.853.311-1.609c.154-.378.37-.702.651-.91.282-.207.636-.339 1.256-.274.012.001-.002-.002.008 0 .001.087-.004.305.006.698.01.455.099 1.063.478 1.646s1.016 1.108 1.986 1.55c2.165.986 4.81.08 7.361-1.427 2.551-1.506 5.068-3.71 6.955-5.814 1.917-2.138 2.58-3.922 2.279-5.503-.302-1.58-1.442-2.717-2.6-3.839-1.259-1.221-2.703-1.87-4.03-1.93zM75.367 56.146a.775.775 0 0 0-.735.812c.58 16.64-4.545 27.736-11.545 35.836-7 8.1-15.912 13.178-22.935 17.57-10.942 6.842-15.153 9.41-20.494 9.881-2.51.222-3.723-.866-4.21-2.098-.489-1.232-.125-2.556.708-3.001.487-.26.669-.216.824-.143.154.072.35.283.509.606.316.645.416 1.55.416 1.55a.775.775 0 1 0 1.544-.138s-.078-1.089-.572-2.095c-.247-.504-.616-1.034-1.24-1.327-.624-.293-1.434-.236-2.212.18-1.698.908-2.14 3.108-1.416 4.938.725 1.829 2.746 3.341 5.787 3.073 5.76-.51 10.231-3.27 21.176-10.114 6.976-4.363 16.07-9.517 23.286-17.867 7.216-8.35 12.515-19.921 11.924-36.905a.775.775 0 0 0-.815-.758zm7.103 34.06c-.35.004-.712.023-1.083.061-5.947.606-14.262 5.498-21.765 10.414-3.752 2.458-7.274 4.93-10.111 6.892-2.837 1.963-5.08 3.442-5.897 3.788a.775.775 0 1 0 .606 1.427c1.242-.527 3.327-1.973 6.171-3.94 2.845-1.968 6.355-4.431 10.08-6.872 7.45-4.88 15.85-9.636 21.074-10.168 2.616-.266 4.33.423 5.551 1.658 1.222 1.235 1.952 3.103 2.259 5.243.614 4.279-.523 9.573-1.941 12.2-1.54 2.85-2.265 4.19-2.562 4.514a.341.341 0 0 0-.065.086c-.003-.004-.004-.008-.017-.01-.077-.003-.398-.094-.887-.202a.775.775 0 1 0-.334 1.512c.405.09.697.212 1.13.238.432.025.978-.207 1.317-.578.678-.74 1.249-1.985 2.78-4.822 1.653-3.06 2.789-8.456 2.114-13.159-.338-2.352-1.145-4.547-2.693-6.111-1.355-1.37-3.278-2.19-5.727-2.17z"/></svg>