<svg xmlns="http://www.w3.org/2000/svg" data-name="Layer 1" viewBox="0 0 100 125" x="0px" y="0px"><title>terminal</title><path d="M80.58,15.22H19.42a2.57,2.57,0,0,0-2.57,2.57V82.21a2.57,2.57,0,0,0,2.57,2.57H80.58a2.57,2.57,0,0,0,2.57-2.57V17.79A2.57,2.57,0,0,0,80.58,15.22ZM79.56,81H20.44V19H79.56Z"/><path d="M38.5,64.43H36l0-5.3a15.59,15.59,0,0,1-3.2-.45,24,24,0,0,1-3.48-1.16V52.91a18.34,18.34,0,0,0,3.51,1.65,10.1,10.1,0,0,0,3.19.6V49.38A10,10,0,0,1,30.87,47a6,6,0,0,1-1.69-4.44A6.21,6.21,0,0,1,31,37.9,7.66,7.66,0,0,1,36,36V31.78H38.5l0,4.17a20.55,20.55,0,0,1,2.59.32,23.44,23.44,0,0,1,2.75.68v4.5a9.83,9.83,0,0,0-2.43-1.12,12.41,12.41,0,0,0-2.93-.53v5.4a9,9,0,0,1,5.23,2.36A6.65,6.65,0,0,1,45.5,52.4a6.31,6.31,0,0,1-1.91,4.73,7.52,7.52,0,0,1-5.07,2ZM36,44.77v-5a2.62,2.62,0,0,0-1.64.73,2.25,2.25,0,0,0-.56,1.61,2.53,2.53,0,0,0,.56,1.67A3.15,3.15,0,0,0,36,44.77Zm2.48,5.08v5.31a2.7,2.7,0,0,0,1.72-.85,2.56,2.56,0,0,0,.62-1.77,2.63,2.63,0,0,0-.61-1.78A2.93,2.93,0,0,0,38.5,49.85Z"/><path d="M69.65,62.47V66H48V62.47Z"/></svg>